# xmcd CD Database Entry
#
# Track frame offsets:
# 182
# 13420
# 34052
# 45097
# 55815
# 65572
# 78972
# 91745
# 104035
# 114432
#
# Disc length: 1699 seconds
#
# Revision: 1
# Processed by: cddbd v1.4b41PL1 Copyright (c) Steve Scherf et al.
# Submitted via: tcd 2.0b
#
DISCID=7806a10a
DTITLE=King Curtis - Soul Serenade
DYEAR=1900
DGENRE=
TTITLE0=Soul Serenade
TTITLE1=There's Something on Your Mind
TTITLE2=I Was Made to Love Her
TTITLE3=Instant Groove
TTITLE4=Castle Rock
TTITLE5=Memphis Soul Stew
TTITLE6=Ode to Billy Joe
TTITLE7=Whole Lotta Love
TTITLE8=Get Ready
TTITLE9=Peter Gunn
EXTD="Masters of the Blues" series
EXTT0=
EXTT1=
EXTT2=
EXTT3=
EXTT4=
EXTT5=
EXTT6=
EXTT7=
EXTT8=
EXTT9=
PLAYORDER=
